<?xml version="1.0" encoding="UTF-8"?>
<svg xmlns="http://www.w3.org/2000/svg" id="Layer_1" data-name="Layer 1" viewBox="0 0 400 100">
  <path d="M97,18.05l0-1.5a2.8,2.8,0,0,0,0-.42L96.84,15c0-.39-.1-1-.16-1.38-.12-.57-.25-1.13-.35-1.7a12.61,12.61,0,0,0-2.19-5.4,3.91,3.91,0,0,0-2-1.58,4.59,4.59,0,0,0-2.18,0,6.94,6.94,0,0,0-4.7,3.72c-.08.11-.17.22-.24.33a23,23,0,0,0-2.09,5.09,14.88,14.88,0,0,0-.7,2.72,5.44,5.44,0,0,0-.37,1.23c-.45,2.26-1,4.5-1.27,6.77h0c-.28,1-.35,2-.53,3s-.3,2.19-.47,3.32c0,.18-.27,1.49-.33,1.9q-.45,2.91-.88,5.83c-.25.92-.33,1.88-.5,2.83-.24,1.35-.44,2.7-.66,4.05a4.75,4.75,0,0,0-.32,1.53c-.34,1.66-.67,3.31-1,5a.22.22,0,0,0-.06.29c-.45,1.81-.88,3.63-1.34,5.44-.32,1.26-.68,2.52-1,3.77a5.86,5.86,0,0,0-.44,1.3,82.85,82.85,0,0,1-3.77,9.75,19.6,19.6,0,0,0-.88,1.78c-1.89,3.64-3.29,6.71-6.06,9.75a24.81,24.81,0,0,1-4.22,3.55,15.85,15.85,0,0,1-4,1.89,8.26,8.26,0,0,1-5-.1,11.92,11.92,0,0,1-4.89-3.22,25.17,25.17,0,0,1-4.31-6.27,52,52,0,0,1-5.48-18.42c0-.12,0-.15,0-.27-.09-.77-.14-1.55-.28-2.31a4.7,4.7,0,0,0-1.92-3.34,2.26,2.26,0,0,0-1-.43,2.48,2.48,0,0,0-1.26,0,2.51,2.51,0,0,0-1.11.51,5.84,5.84,0,0,0-2,3.34,9.23,9.23,0,0,0-.32,2.92,5.45,5.45,0,0,0,0,.68,24.38,24.38,0,0,0,.71,5.45,35.53,35.53,0,0,0,1.95,6A39.28,39.28,0,0,0,39,88.21a21.05,21.05,0,0,0,8.86,5.26,14.07,14.07,0,0,0,7.35-.19,27.2,27.2,0,0,0,9.19-4.56A57,57,0,0,0,74,79.57a16.64,16.64,0,0,0,1.44-1.9h0c.17-.2,3.25-4.06,4.57-6a36.82,36.82,0,0,0,2-3.13,1.12,1.12,0,0,0,.17-.21c.75-1.25,1.52-2.5,2.24-3.77a35.77,35.77,0,0,0,2-3.88h0a36.64,36.64,0,0,0,1.93-4A5.37,5.37,0,0,0,89,55.31a15.45,15.45,0,0,0,1-2.35,40.44,40.44,0,0,0,1.26-3.86,1.71,1.71,0,0,0,.13-.23c.46-1.49.93-3,1.37-4.47a12.64,12.64,0,0,0,.59-2.19,54.74,54.74,0,0,0,1.55-6.05,43.34,43.34,0,0,0,.93-4.36,26.6,26.6,0,0,0,.56-3.65A49.2,49.2,0,0,0,97,22.48c0-.24,0-.35,0-.55,0-.57.09-1.14.09-1.71A10.5,10.5,0,0,0,97,18.05ZM81.47,25.18l-.13-.12ZM81,24.86a1.06,1.06,0,0,0-.31-.05A1.06,1.06,0,0,1,81,24.86ZM76.28,52.37a.58.58,0,0,0-.29-.09h0A.58.58,0,0,1,76.28,52.37Zm-.32.06a.47.47,0,0,1-.06.09A.47.47,0,0,0,76,52.43ZM73.84,76.34q.28.25.57.48Q74.13,76.6,73.84,76.34Z" fill="#5ec199"></path>
  <path d="M49.36,68.79A5,5,0,0,0,52.53,71a3.37,3.37,0,0,0,1.38,0,4.07,4.07,0,0,0,2.14-1.14,8.89,8.89,0,0,0,1.84-2.72,11.45,11.45,0,0,0,1-3.45,2.45,2.45,0,0,0,0-.27,15.44,15.44,0,0,0,0-3,2.33,2.33,0,0,0,0-.27A11.94,11.94,0,0,0,57.57,56a5.54,5.54,0,0,0-3.78-3.14,3.56,3.56,0,0,0-1.26,0A4.44,4.44,0,0,0,50.26,54,8.58,8.58,0,0,0,48,57.92c-.12.41-.28,1.25-.28,1.25a3.53,3.53,0,0,0-.13.54,14.37,14.37,0,0,0,0,4.44A10.49,10.49,0,0,0,49.36,68.79Z" fill="#5ec199"></path>
  <path d="M130.08,55.52a2.19,2.19,0,0,1-2.22-2.18V32h.07a2.2,2.2,0,0,1,2.18,2.22V55.52Z" fill="#fff" stroke="#fff" stroke-miterlimit="10" stroke-width="0.5"></path>
  <path d="M160.6,55.52a2.27,2.27,0,0,1-1.69-.74L144.14,34.34v19A2.19,2.19,0,0,1,142,55.52h-.07V34.16a2.24,2.24,0,0,1,3.88-1.44L160.6,53.27V34.2A2.2,2.2,0,0,1,162.78,32h.07V53.34A2.23,2.23,0,0,1,160.6,55.52Z" fill="#fff" stroke="#fff" stroke-miterlimit="10" stroke-width="0.5"></path>
  <path d="M193.06,52a11.65,11.65,0,0,1-8.25,3.31h-8.14a2.22,2.22,0,0,1-2.26-2.11V34.3a2.21,2.21,0,0,1,2.19-2.15h8.21a11.68,11.68,0,0,1,11.7,11.63A11.42,11.42,0,0,1,193.06,52Zm-1.59-14.88a9.46,9.46,0,0,0-6.66-2.68h-7.75a.39.39,0,0,0-.39.39v17.8a.4.4,0,0,0,.42.42h7.72a9.29,9.29,0,0,0,6.66-15.93Z" fill="#fff" stroke="#fff" stroke-miterlimit="10" stroke-width="0.5"></path>
  <path d="M230.24,43.86a11.61,11.61,0,0,1-3.45,8.63,12.62,12.62,0,0,1-16.57,0,11.46,11.46,0,0,1-3.45-8.63V32.08h.07A2.23,2.23,0,0,1,209,34.3v9.48a9.5,9.5,0,0,0,2.75,7.09,9.74,9.74,0,0,0,6.73,2.47,9.6,9.6,0,0,0,6.7-2.47A9.41,9.41,0,0,0,228,43.78V34.3a2.23,2.23,0,0,1,2.19-2.22h.07Z" fill="#fff" stroke="#fff" stroke-miterlimit="10" stroke-width="0.5"></path>
  <path d="M251.28,55.52c-5.85,0-10.47-2.71-10.61-6.2a2.2,2.2,0,0,1,2.54.84c.95,1.63,4,3.11,8.07,3.11,5,0,8.42-2.19,8.42-4.16,0-3.11-4.83-4.23-9.48-5.33s-9.59-2.29-9.59-6c0-3.28,4.59-5.78,10.65-5.78s10.5,2.4,10.64,5.64a2.28,2.28,0,0,1-2.5-.67c-.92-1.41-4.09-2.71-8.14-2.71-4.79,0-8.39,1.87-8.39,3.52,0,1.94,4,2.86,7.86,3.77C256,42.83,262,44.24,262,49.11,262,52.7,257.27,55.52,251.28,55.52Z" fill="#fff" stroke="#fff" stroke-miterlimit="10" stroke-width="0.5"></path>
  <path d="M288.11,53.55a3.47,3.47,0,0,1-6.24,0l-11-21.18.07,0a3.26,3.26,0,0,1,4.37,1.27c3.31,6.1,9.59,18.33,9.59,18.33s.1.18.14.18a.25.25,0,0,0,.1-.14l9.59-18.3a3.34,3.34,0,0,1,4.44-1.34l.07,0Z" fill="#fff" stroke="#fff" stroke-miterlimit="10"></path>
  <path d="M312.11,55.56a3.37,3.37,0,0,1-3.38-3.32V32a3.36,3.36,0,0,1,3.38,3.28Z" fill="#fff" stroke="#fff" stroke-miterlimit="10"></path>
  <path d="M338.9,53.55a3.47,3.47,0,0,1-6.24,0l-11-21.18.07,0a3.27,3.27,0,0,1,4.38,1.27c3.31,6.1,9.58,18.33,9.58,18.33s.11.18.14.18a.29.29,0,0,0,.11-.14l9.59-18.3a3.33,3.33,0,0,1,4.44-1.34l.07,0Z" fill="#fff" stroke="#fff" stroke-miterlimit="10"></path>
  <path d="M376.15,53.94l-2.36-4.52H359l-2.22,4.27a3.38,3.38,0,0,1-4.52,1.52L363.28,34a3.39,3.39,0,0,1,3.07-1.94,3.43,3.43,0,0,1,3.1,1.94l11.07,21.22A3.24,3.24,0,0,1,376.15,53.94ZM366.53,35.5c-.07-.1-.15-.17-.18-.17s-.11.07-.18.21l-5.5,10.57h11.39Z" fill="#fff" stroke="#fff" stroke-miterlimit="10"></path>
  <path d="M156.13,79.25a3,3,0,0,1-3.23,2.93h-4.07a.34.34,0,0,1-.37-.34V72a.35.35,0,0,1,.37-.34h4a2.71,2.71,0,0,1,2.76,2.67,2.39,2.39,0,0,1-1.72,2.26A2.76,2.76,0,0,1,156.13,79.25Zm-6.92-6.91v3.92h3.56a2,2,0,1,0,0-3.92Zm6.18,6.89A2.35,2.35,0,0,0,152.84,77h-3.63v4.5h3.67A2.36,2.36,0,0,0,155.39,79.23Z" fill="#fff" stroke="#fff" stroke-miterlimit="10" stroke-width="0.5"></path>
  <path d="M169.63,78.14c0,.25-.1.43-.33.43h-6.61a3.22,3.22,0,0,0,3.27,3,3,3,0,0,0,2.32-.88.39.39,0,0,1,.55,0,.37.37,0,0,1-.05.51,3.53,3.53,0,0,1-2.84,1.11,3.94,3.94,0,1,1,0-7.88A3.66,3.66,0,0,1,169.63,78.14Zm-.66-.21a3,3,0,0,0-3-2.84,3.19,3.19,0,0,0-3.26,2.84Z" fill="#fff" stroke="#fff" stroke-miterlimit="10" stroke-width="0.5"></path>
  <path d="M182.1,75l-3.48,7.21C177.74,84.08,177,85,175.19,85a.35.35,0,0,1-.39-.33c0-.22.13-.32.38-.33,1.54,0,2.09-.74,2.82-2.36l-3.34-7a.36.36,0,0,1,.31-.51.36.36,0,0,1,.36.22l3,6.5,3.05-6.49a.36.36,0,1,1,.67.28Z" fill="#fff" stroke="#fff" stroke-miterlimit="10" stroke-width="0.5"></path>
  <path d="M187,78.36a4.14,4.14,0,1,1,4.14,3.94A4,4,0,0,1,187,78.36Zm7.56,0a3.43,3.43,0,0,0-6.85,0,3.43,3.43,0,0,0,6.85,0Z" fill="#fff" stroke="#fff" stroke-miterlimit="10" stroke-width="0.5"></path>
  <path d="M209.13,78.16v3.68a.37.37,0,0,1-.74,0v-3.7a2.94,2.94,0,0,0-3-3,3,3,0,0,0-3.08,3v3.7a.35.35,0,0,1-.36.34.35.35,0,0,1-.38-.34v-7a.32.32,0,0,1,.29-.33c.16,0,.3.1.3.36v1.6a3.53,3.53,0,0,1,3.27-2A3.6,3.6,0,0,1,209.13,78.16Z" fill="#fff" stroke="#fff" stroke-miterlimit="10" stroke-width="0.5"></path>
  <path d="M223.58,71.91v9.94a.33.33,0,0,1-.31.33c-.14,0-.3-.1-.3-.36V80.06a3.93,3.93,0,0,1-3.6,2.24,3.94,3.94,0,1,1,.07-7.88,3.84,3.84,0,0,1,3.39,1.92V71.91a.36.36,0,0,1,.37-.37A.38.38,0,0,1,223.58,71.91Zm-.71,6.43a1.51,1.51,0,0,0,0-.3c0-.06,0-.11,0-.16a3.35,3.35,0,0,0-3.39-2.79A3.3,3.3,0,0,0,216,78.34a3.42,3.42,0,0,0,6.84,0Z" fill="#fff" stroke="#fff" stroke-miterlimit="10" stroke-width="0.5"></path>
  <path d="M245.41,82.25H239a.34.34,0,0,1-.35-.23.28.28,0,0,1,.09-.38l5-4.88a3.17,3.17,0,0,0,1.11-2.13,2.63,2.63,0,0,0-5.21-.15.4.4,0,0,1-.44.3.35.35,0,0,1-.29-.41,3.16,3.16,0,0,1,3.38-2.76,3,3,0,0,1,3.3,3,3.66,3.66,0,0,1-1.31,2.64l-4.49,4.32h5.58a.36.36,0,0,1,.38.35A.37.37,0,0,1,245.41,82.25Z" fill="#fff" stroke="#fff" stroke-miterlimit="10" stroke-width="0.5"></path>
  <path d="M253.55,81.82a.35.35,0,0,1-.36.36.37.37,0,0,1-.38-.36V72.55l-1.28.81a.36.36,0,0,1-.44-.13.37.37,0,0,1,.12-.5l1.75-1a.39.39,0,0,1,.44,0,.34.34,0,0,1,.15.3Z" fill="#fff" stroke="#fff" stroke-miterlimit="10" stroke-width="0.5"></path>
  <path d="M259.52,76.05a.25.25,0,0,1-.07-.17.17.17,0,0,1,.17-.17.36.36,0,0,1,.23.09,1.57,1.57,0,0,0,1.37.57c.65,0,1.21-.37,1.21-.88s-.57-.76-1.5-1c-.71-.18-1.26-.53-1.26-1.24s.7-1.08,1.46-1.08a1.72,1.72,0,0,1,1.45.62.29.29,0,0,1,.09.17.19.19,0,0,1-.19.19.32.32,0,0,1-.2-.07,1.37,1.37,0,0,0-1.19-.52c-.47,0-1,.13-1,.71s.43.74,1,.9c1,.28,1.77.57,1.77,1.32s-.77,1.27-1.68,1.27A1.93,1.93,0,0,1,259.52,76.05Z" fill="#fff" stroke="#fff" stroke-miterlimit="10" stroke-width="0.5"></path>
  <path d="M268.5,72.41a.2.2,0,0,1-.22.21h-.85v3.85a.21.21,0,0,1-.21.22.21.21,0,0,1-.22-.22V72.62h-.85c-.17,0-.23-.1-.23-.2s.06-.2.23-.2H267V71.16a.21.21,0,0,1,.21-.21.21.21,0,0,1,.22.21v1.06h.85A.19.19,0,0,1,268.5,72.41Z" fill="#fff" stroke="#fff" stroke-miterlimit="10" stroke-width="0.5"></path>
  <path d="M277.35,76.92a5.51,5.51,0,0,1,5.6-5.41,5.65,5.65,0,0,1,4,1.57.34.34,0,0,1,.09.48.4.4,0,0,1-.54,0,5.07,5.07,0,0,0-3.48-1.4,4.72,4.72,0,1,0,0,9.43,5,5,0,0,0,3.49-1.33.39.39,0,0,1,.53,0,.34.34,0,0,1-.07.49,5.6,5.6,0,0,1-4,1.54A5.52,5.52,0,0,1,277.35,76.92Z" fill="#fff" stroke="#fff" stroke-miterlimit="10" stroke-width="0.5"></path>
  <path d="M300.9,78.14c0,.25-.11.43-.33.43H294a3.23,3.23,0,0,0,3.27,3,3,3,0,0,0,2.32-.88.4.4,0,0,1,.56,0,.38.38,0,0,1-.05.51,3.55,3.55,0,0,1-2.84,1.11,3.94,3.94,0,1,1,0-7.88A3.66,3.66,0,0,1,300.9,78.14Zm-.66-.21a3,3,0,0,0-3-2.84A3.18,3.18,0,0,0,294,77.93Z" fill="#fff" stroke="#fff" stroke-miterlimit="10" stroke-width="0.5"></path>
  <path d="M314.72,78.16v3.68a.37.37,0,0,1-.74,0v-3.7a2.94,2.94,0,0,0-3-3,3,3,0,0,0-3.08,3v3.7a.35.35,0,0,1-.36.34.35.35,0,0,1-.38-.34v-7a.32.32,0,0,1,.29-.33c.16,0,.3.1.3.36v1.6a3.53,3.53,0,0,1,3.27-2A3.6,3.6,0,0,1,314.72,78.16Z" fill="#fff" stroke="#fff" stroke-miterlimit="10" stroke-width="0.5"></path>
  <path d="M324.79,74.83a.35.35,0,0,1-.38.36H323V81.8a.36.36,0,0,1-.36.38.37.37,0,0,1-.38-.38V75.19h-1.46c-.29,0-.4-.17-.4-.35s.11-.33.4-.33h1.46V72.68a.34.34,0,0,1,.36-.34.35.35,0,0,1,.38.34v1.83h1.46C324.67,74.51,324.79,74.66,324.79,74.83Z" fill="#fff" stroke="#fff" stroke-miterlimit="10" stroke-width="0.5"></path>
  <path d="M338,74.86v7a.33.33,0,0,1-.31.33c-.14,0-.3-.1-.3-.36V80.24a3.37,3.37,0,0,1-3.22,2.06,3.73,3.73,0,0,1-3.7-3.78V74.86a.34.34,0,0,1,.36-.35.36.36,0,0,1,.38.35v3.66a3,3,0,0,0,3.07,3,2.89,2.89,0,0,0,3-3.1V74.86a.36.36,0,0,1,.38-.35A.36.36,0,0,1,338,74.86Z" fill="#fff" stroke="#fff" stroke-miterlimit="10" stroke-width="0.5"></path>
  <path d="M349.49,74.84a.36.36,0,0,1-.4.35,3.49,3.49,0,0,0-3.6,3.45v3.18a.36.36,0,0,1-.36.36H345c-.19,0-.29-.14-.29-.34v-7a.32.32,0,0,1,.29-.33c.16,0,.3.1.3.37v1.93a4,4,0,0,1,3.75-2.31C349.37,74.5,349.49,74.66,349.49,74.84Z" fill="#fff" stroke="#fff" stroke-miterlimit="10" stroke-width="0.5"></path>
  <path d="M361.86,75l-3.48,7.21C357.5,84.08,356.75,85,355,85a.36.36,0,0,1-.4-.33c0-.22.14-.32.38-.33,1.55,0,2.1-.74,2.83-2.36l-3.35-7a.37.37,0,0,1,.32-.51.36.36,0,0,1,.36.22l3.05,6.5,3.05-6.49a.36.36,0,1,1,.67.28Z" fill="#fff" stroke="#fff" stroke-miterlimit="10" stroke-width="0.5"></path>
</svg>
