<svg xmlns="http://www.w3.org/2000/svg" width="1024" height="1024" viewBox="0 0 1024 1024">
<g>
<path d="M 258.42 630.06 C222.60,640.50 217.49,641.39 207.79,638.81 C203.72,637.72 202.79,636.10 203.38,631.08 C203.89,626.70 205.19,626.04 213.50,625.98 C217.65,625.95 221.52,625.35 223.00,624.50 C224.38,623.71 226.85,623.04 228.50,623.00 C232.28,622.92 235.37,620.77 233.86,619.26 C233.11,618.51 233.34,618.04 234.65,617.64 C239.62,616.14 291.97,601.48 310.50,596.40 C323.55,592.83 332.35,589.89 333.75,588.65 C336.47,586.24 336.65,582.90 334.19,580.67 C332.45,579.10 310.24,568.54 295.39,562.23 L 288.29 559.21 L 288.09 566.86 C287.98,571.06 287.58,574.80 287.19,575.17 C286.17,576.17 274.63,579.00 271.61,579.00 C268.65,579.00 268.41,578.06 270.38,574.20 C271.68,571.66 273.11,558.83 273.38,547.40 C273.45,544.60 274.08,541.61 274.80,540.75 C275.82,539.51 275.90,536.57 275.16,526.84 C274.65,520.05 274.41,511.58 274.64,508.00 C275.63,492.17 275.65,488.03 274.74,480.50 C273.27,468.20 273.09,462.61 274.12,461.36 C275.01,460.28 274.50,458.31 271.79,452.41 C271.05,450.79 271.41,449.48 273.42,446.52 C274.84,444.43 276.00,442.33 276.00,441.86 C276.00,441.39 276.88,441.00 277.95,441.00 C280.49,441.00 280.71,442.48 282.05,468.50 C284.71,520.37 286.87,549.30 288.18,550.54 C288.91,551.23 298.50,555.95 309.50,561.03 C320.50,566.10 330.21,570.88 331.08,571.63 C331.95,572.38 333.44,573.00 334.41,573.00 C335.37,573.00 337.50,574.34 339.14,575.98 C342.08,578.92 342.09,579.00 340.31,581.38 C339.31,582.71 338.16,583.59 337.75,583.34 C337.34,583.09 337.00,584.30 337.00,586.03 C337.00,589.14 340.90,595.66 341.10,592.88 C341.16,592.12 341.61,593.24 342.11,595.37 C342.85,598.54 342.66,599.81 341.03,602.46 C338.47,606.60 335.57,607.81 312.00,614.54 C301.27,617.61 277.16,624.59 258.42,630.06 ZM 781.66 516.15 C776.58,518.77 765.92,519.45 759.97,517.53 C749.58,514.18 742.00,503.59 742.00,492.43 C742.00,480.35 746.78,471.76 756.10,467.11 C761.08,464.62 763.57,464.00 768.62,464.00 C785.61,464.00 795.96,474.22 795.96,491.00 C795.96,502.60 790.98,511.35 781.66,516.15 ZM 817.50 500.50 L 816.50 517.50 L 811.46 517.79 C808.69,517.96 806.10,517.77 805.71,517.38 C805.32,516.99 805.00,505.04 805.00,490.83 L 805.00 465.00 L 820.29 465.00 C834.16,465.00 835.99,465.21 840.03,467.25 C846.27,470.40 849.00,474.87 849.00,481.90 C848.99,488.59 846.61,493.12 841.49,496.14 C839.57,497.27 838.00,498.38 838.00,498.61 C838.00,498.83 840.52,502.81 843.60,507.44 C846.68,512.07 848.91,516.34 848.54,516.93 C848.18,517.52 845.26,518.00 842.05,518.00 L 836.22 518.00 L 830.86 508.95 L 825.51 499.91 L 821.50 500.20 ZM 572.78 514.50 C571.63,517.15 570.96,517.52 566.99,517.66 C563.16,517.79 559.00,517.28 559.00,516.68 C559.00,516.58 563.61,505.02 569.25,491.00 L 579.50 465.50 L 586.58 465.21 L 593.65 464.92 L 603.81 490.65 C609.39,504.80 613.78,516.55 613.56,516.77 C613.34,516.99 610.48,517.42 607.20,517.72 L 601.25 518.26 L 599.57 513.20 C598.65,510.43 597.29,507.65 596.55,507.04 C595.71,506.34 591.69,506.03 585.89,506.21 C580.58,506.38 578.23,506.32 576.69,507.42 C575.26,508.43 574.53,510.43 572.78,514.50 ZM 453.50 496.50 L 452.50 517.50 L 447.46 517.79 C444.69,517.96 442.10,517.77 441.71,517.38 C441.32,516.99 441.00,505.04 441.00,490.83 L 441.00 465.00 L 453.00 465.00 L 453.00 485.06 L 476.50 484.50 L 476.79 474.75 L 477.07 465.00 L 489.00 465.00 L 489.00 490.30 C489.00,508.64 488.67,515.93 487.80,516.80 C487.14,517.46 484.44,518.00 481.80,518.00 L 477.00 518.00 L 476.99 509.25 C476.99,508.50 476.99,507.80 476.99,507.13 C476.99,501.35 477.00,498.54 475.59,497.21 C474.26,495.94 471.66,496.02 466.58,496.16 C465.97,496.18 465.32,496.20 464.63,496.22 ZM 674.17 515.85 C669.55,518.40 657.21,519.64 651.50,518.13 C643.79,516.09 637.62,510.15 636.82,504.00 C636.52,501.63 636.79,501.48 641.88,501.19 C646.85,500.91 647.46,501.13 649.88,504.00 C654.28,509.24 663.89,510.10 668.75,505.69 C673.52,501.36 670.10,498.51 657.72,496.51 C643.57,494.22 640.05,491.97 637.87,483.81 C636.78,479.71 636.85,478.66 638.49,475.01 C641.98,467.28 648.18,464.02 659.38,464.01 C666.76,464.00 672.05,465.55 676.01,468.90 C678.93,471.36 682.35,478.63 681.35,480.25 C681.09,480.66 678.45,481.00 675.48,481.00 C671.10,481.00 669.87,480.62 669.01,479.01 C666.14,473.66 654.53,472.39 650.79,477.01 C648.54,479.79 648.55,480.55 650.86,482.86 C652.08,484.08 655.56,485.14 661.11,485.97 C676.54,488.29 683.00,493.00 683.00,501.93 C683.00,507.93 680.03,512.62 674.17,515.85 ZM 944.16 515.83 C939.62,518.36 928.04,519.59 922.50,518.13 C914.03,515.89 907.00,509.05 907.00,503.07 C907.00,501.21 907.60,501.00 913.00,501.00 C916.51,501.00 919.00,501.43 919.00,502.05 C919.00,502.62 920.10,504.20 921.45,505.55 C923.55,507.64 924.85,508.00 930.28,508.00 C935.65,508.00 936.99,507.64 938.83,505.69 C943.63,500.57 941.16,498.51 927.63,496.34 C922.61,495.54 917.15,494.09 915.50,493.13 C910.87,490.44 908.00,485.45 908.00,480.10 C908.01,473.86 910.78,469.65 916.93,466.54 C925.92,461.98 940.79,463.55 947.24,469.73 C950.08,472.45 952.54,478.88 951.23,480.14 C950.83,480.53 948.29,480.98 945.58,481.13 C941.36,481.38 940.53,481.12 939.71,479.27 C938.72,477.05 932.49,474.00 928.95,474.00 C927.84,474.00 925.38,474.65 923.47,475.45 C920.81,476.56 920.00,477.49 920.00,479.43 C920.00,482.90 923.14,484.68 931.50,485.96 C941.37,487.46 946.42,489.57 950.06,493.73 C952.95,497.01 953.18,497.78 952.77,502.70 C952.24,509.10 949.95,512.59 944.16,515.83 ZM 421.62 516.18 C417.35,518.37 405.54,519.46 400.50,518.13 C396.37,517.03 391.83,514.57 389.79,512.32 C387.52,509.81 384.78,503.16 385.53,501.96 C385.85,501.43 388.15,501.00 390.63,501.00 C394.48,501.00 395.61,501.51 398.44,504.50 C401.55,507.80 402.11,508.00 408.19,508.00 C413.65,508.00 414.99,507.64 416.83,505.69 C421.62,500.58 419.16,498.51 405.74,496.35 C392.34,494.20 389.07,492.01 386.86,483.77 C385.75,479.60 385.82,478.52 387.55,474.28 C389.21,470.21 390.31,469.09 394.93,466.75 C400.92,463.71 410.00,463.04 417.38,465.09 C423.11,466.68 429.11,472.67 429.33,477.02 L 429.50 480.50 L 424.28 480.80 C419.53,481.08 418.82,480.83 416.28,477.99 C412.82,474.11 407.14,473.08 401.71,475.35 C398.82,476.56 398.00,477.45 398.00,479.43 C398.00,483.09 401.17,484.67 411.95,486.39 C427.08,488.82 432.93,494.47 431.03,504.84 C430.13,509.75 427.15,513.35 421.62,516.18 ZM 898.50 507.50 L 898.50 517.50 L 878.94 517.77 C868.18,517.92 859.07,517.73 858.69,517.35 C858.31,516.98 858.00,505.04 858.00,490.83 L 858.00 465.00 L 899.11 465.00 L 898.80 469.75 L 898.50 474.50 L 870.50 475.50 L 870.50 485.50 L 893.50 486.50 L 893.50 495.50 L 870.50 496.50 L 870.50 506.50 ZM 532.50 498.50 L 531.50 517.50 L 526.38 517.80 C522.38,518.03 521.11,517.74 520.63,516.47 C520.28,515.57 520.00,503.62 520.00,489.92 L 520.00 465.00 L 560.11 465.00 L 559.80 469.75 L 559.50 474.50 L 532.50 475.50 L 532.50 486.50 L 553.50 487.50 L 553.50 497.50 ZM 719.77 496.79 L 719.50 517.50 L 714.24 517.80 C710.60,518.01 708.83,517.70 708.50,516.80 C708.23,516.09 707.90,506.73 707.76,496.00 L 707.50 476.50 L 689.50 475.50 L 689.50 465.50 L 713.80 465.23 L 738.11 464.96 L 737.80 470.23 L 737.50 475.50 L 728.77 475.79 L 720.04 476.08 ZM 761.85 505.98 C772.05,511.37 782.95,504.53 783.74,492.26 C784.21,484.96 781.99,480.37 776.50,477.28 C768.64,472.87 760.14,475.25 756.25,482.96 C751.99,491.41 754.60,502.15 761.85,505.98 ZM 509.80 516.80 C508.54,518.06 499.81,518.48 498.67,517.33 C498.30,516.97 498.00,505.04 498.00,490.83 L 498.00 465.00 L 503.88 465.00 C509.14,465.00 509.83,465.24 510.37,467.25 C511.57,471.74 511.07,515.53 509.80,516.80 ZM 817.84 482.37 L 818.17 489.00 L 825.09 489.00 C833.30,489.00 836.00,487.15 836.00,481.54 C836.00,477.30 834.54,476.39 826.25,475.45 C817.59,474.47 817.44,474.59 817.84,482.37 ZM 580.89 495.93 C582.14,496.70 591.27,496.02 592.26,495.09 C593.23,494.18 587.67,480.45 586.42,480.65 C584.99,480.89 579.79,495.25 580.89,495.93 Z" fill="rgb(10,37,91)"/>
<path d="M 276.86 441.15 C276.34,441.30 276.00,441.57 276.00,441.86 C276.00,442.33 274.84,444.43 273.42,446.52 C271.41,449.48 271.05,450.79 271.79,452.41 C274.50,458.31 275.01,460.28 274.12,461.36 C273.09,462.61 273.27,468.20 274.74,480.50 C275.65,488.03 275.63,492.17 274.64,508.00 C274.41,511.58 274.65,520.05 275.16,526.84 C275.90,536.57 275.82,539.51 274.80,540.75 C274.08,541.61 273.45,544.60 273.38,547.40 C273.11,558.83 271.68,571.66 270.38,574.20 C268.41,578.06 268.65,579.00 271.61,579.00 C272.42,579.00 273.85,578.79 275.53,578.47 C258.56,582.84 228.83,590.00 226.90,590.00 C225.86,590.00 225.00,589.82 225.00,589.61 C225.00,589.28 229.65,557.26 237.58,503.00 C238.43,497.23 240.65,482.38 242.53,470.00 C244.41,457.62 246.47,443.98 247.11,439.68 L 248.27 431.86 L 251.72 435.18 C253.62,437.01 255.86,439.81 256.70,441.42 C258.10,444.11 258.31,444.19 259.26,442.49 C259.83,441.48 260.52,436.43 260.79,431.28 C261.24,422.54 261.12,421.76 258.98,419.48 C253.69,413.85 243.69,415.81 237.22,423.76 C235.17,426.27 231.99,430.05 230.14,432.15 C227.56,435.10 226.38,437.83 225.00,444.01 C222.61,454.71 220.36,457.22 216.57,453.43 C214.80,451.66 214.85,451.30 219.04,436.43 C224.21,418.11 223.96,412.78 217.77,409.00 C209.58,404.01 195.84,408.99 189.28,419.33 C185.25,425.68 183.23,431.84 181.43,443.17 C180.53,448.85 179.37,454.29 178.86,455.25 C177.71,457.41 174.68,457.52 172.98,455.48 C171.94,454.23 172.29,451.64 174.90,441.23 C178.72,425.93 182.37,417.72 188.12,411.48 C196.66,402.23 209.75,398.58 219.30,402.81 C225.49,405.55 227.99,409.70 228.00,417.25 C228.00,420.41 228.36,423.00 228.80,423.00 C229.24,423.00 231.37,421.15 233.55,418.88 C238.34,413.88 246.12,410.02 251.41,410.01 C256.65,410.00 263.28,413.97 265.37,418.37 C267.15,422.12 267.46,432.04 266.05,440.50 C265.59,443.25 265.35,445.64 265.51,445.82 C265.67,445.99 268.08,444.98 270.87,443.57 C273.53,442.22 275.46,441.41 276.86,441.15 ZM 205.19 637.78 C202.48,636.79 199.91,635.44 197.35,633.70 C190.60,629.12 88.99,545.43 86.34,542.27 C85.15,540.85 84.37,539.20 84.60,538.59 C84.84,537.98 84.01,537.04 82.76,536.49 C80.01,535.29 79.08,529.06 81.32,526.83 C82.10,526.05 83.04,524.43 83.42,523.25 C85.07,518.05 88.77,516.54 109.62,512.53 C120.55,510.43 130.40,508.25 131.49,507.69 C134.55,506.13 138.00,506.01 138.00,507.47 C138.00,508.35 130.24,510.27 113.09,513.63 C87.93,518.55 85.03,519.60 86.59,523.21 C86.90,523.92 92.63,528.85 99.33,534.17 C106.02,539.49 126.80,556.28 145.50,571.47 C164.20,586.67 183.93,602.69 189.35,607.08 C201.23,616.71 207.52,620.06 214.94,620.71 C219.92,621.15 222.88,620.80 243.12,615.21 C238.75,616.45 235.68,617.33 234.65,617.64 C233.34,618.04 233.11,618.51 233.86,619.26 C235.37,620.77 232.28,622.92 228.50,623.00 C226.85,623.04 224.38,623.71 223.00,624.50 C221.52,625.35 217.65,625.95 213.50,625.98 C205.19,626.04 203.89,626.70 203.38,631.08 C202.95,634.77 203.33,636.63 205.19,637.78 ZM 342.27 599.93 C342.68,598.62 342.58,597.37 342.11,595.37 C341.61,593.24 341.16,592.12 341.10,592.88 C340.90,595.66 337.00,589.14 337.00,586.03 C337.00,584.30 337.34,583.09 337.75,583.34 C338.16,583.59 339.31,582.71 340.31,581.38 C341.26,580.11 341.70,579.49 341.45,578.75 C342.98,581.09 343.45,583.29 343.78,588.47 C344.16,594.39 343.92,596.39 342.27,599.93 ZM 251.53 632.06 C230.13,638.24 223.39,639.83 218.62,639.93 C224.87,639.44 233.81,637.17 251.53,632.06 ZM 331.00 571.49 C331.57,571.97 332.65,572.52 333.76,572.93 C332.86,572.74 331.77,572.23 331.08,571.63 C330.21,570.88 320.50,566.10 309.50,561.03 C320.50,566.10 330.17,570.81 331.00,571.49 ZM 336.65 606.68 C336.19,606.92 335.09,607.34 333.51,607.88 C335.96,606.92 337.53,606.09 338.67,605.19 C338.00,605.83 337.32,606.33 336.65,606.68 ZM 280.77 447.70 C280.48,444.62 280.15,442.95 279.72,442.04 C280.06,442.57 280.29,443.30 280.44,444.25 C280.52,444.75 280.64,445.96 280.77,447.70 ZM 340.30 577.16 C339.98,576.83 339.59,576.44 339.14,575.98 C338.64,575.49 338.10,575.02 337.56,574.61 C338.52,575.30 339.51,576.21 340.30,577.16 ZM 280.71 604.66 C291.70,601.59 303.08,598.44 310.50,596.40 C303.75,598.25 292.51,601.37 280.71,604.66 ZM 287.02 575.30 C287.09,575.26 287.15,575.21 287.19,575.17 C287.23,575.14 287.27,575.07 287.30,574.98 C287.26,575.10 287.22,575.17 287.18,575.22 C287.16,575.24 287.10,575.27 287.02,575.30 Z" fill="rgb(40,64,115)"/>
<path d="M 287.02 575.30 C287.10,575.27 287.16,575.24 287.18,575.22 C287.22,575.17 287.26,575.10 287.30,574.98 C287.65,574.10 287.99,570.67 288.09,566.86 L 288.13 565.16 C288.23,566.39 288.38,567.88 288.55,569.66 L 289.14 575.81 L 294.55 578.16 C297.53,579.45 299.97,580.78 299.98,581.13 C300.01,582.18 290.77,585.80 282.41,588.01 C278.06,589.17 273.60,590.49 272.50,590.95 C267.66,593.00 235.83,600.00 231.39,600.00 C230.63,600.00 229.97,600.00 229.31,599.94 C224.75,599.56 220.40,596.55 185.75,572.57 C169.11,561.05 151.31,548.74 146.20,545.20 C141.08,541.67 137.11,538.56 137.38,538.29 C137.81,537.85 157.06,549.46 204.00,578.49 C223.38,590.47 225.00,591.37 225.00,590.14 C225.00,590.09 225.01,589.94 225.04,589.69 C225.23,589.87 226.00,590.00 226.90,590.00 C228.83,590.00 258.56,582.84 275.53,578.47 C279.83,577.65 285.74,576.09 287.02,575.30 ZM 288.24 561.01 L 288.29 559.21 L 293.66 561.49 C290.97,560.36 289.47,559.82 288.70,560.35 C288.50,560.49 288.35,560.71 288.24,561.01 Z" fill="rgb(44,89,168)"/>
<path d="M 533.60 555.60 C530.75,558.45 529.48,559.00 525.73,559.00 C520.15,559.00 516.47,556.30 514.89,551.04 C511.55,539.87 520.59,530.86 530.45,535.54 C534.93,537.67 537.00,541.46 537.00,547.55 C537.00,551.50 536.49,552.71 533.60,555.60 ZM 611.53 557.94 C610.78,559.16 608.33,559.36 607.67,558.25 C607.06,557.23 601.00,536.86 601.00,535.83 C601.00,534.63 603.76,534.81 604.53,536.06 C604.89,536.64 605.93,539.86 606.84,543.22 C607.75,546.59 608.97,549.49 609.54,549.68 C610.11,549.87 611.45,546.84 612.51,542.95 C615.74,531.18 618.32,531.59 621.50,544.39 C623.56,552.64 625.07,553.63 626.16,547.42 C627.38,540.47 629.43,535.54 631.25,535.19 C633.62,534.73 633.50,535.81 629.81,547.82 C625.48,561.93 623.07,562.49 619.50,550.22 C618.49,546.77 617.18,544.11 616.58,544.30 C615.99,544.50 614.75,547.41 613.84,550.78 C612.93,554.14 611.89,557.36 611.53,557.94 ZM 782.00 554.43 C781.49,558.40 779.45,560.33 778.46,557.77 C778.17,557.00 778.06,551.67 778.21,545.93 L 778.50 535.50 L 784.56 535.21 C789.50,534.97 791.12,535.30 793.31,537.03 C796.86,539.82 796.91,544.18 793.44,547.65 L 790.88 550.21 L 793.44 554.09 C796.51,558.73 796.55,559.00 794.05,559.00 C792.86,559.00 790.88,557.23 788.96,554.44 C785.10,548.83 782.72,548.83 782.00,554.43 ZM 553.81 554.70 C553.51,558.20 552.14,559.81 550.69,558.35 C550.31,557.98 550.00,552.57 550.00,546.33 L 550.00 535.00 L 556.39 535.00 C564.40,535.00 567.40,537.00 567.40,542.32 C567.40,547.23 564.92,549.62 559.02,550.40 C554.24,551.04 554.11,551.15 553.81,554.70 ZM 859.90 556.60 C858.15,558.47 856.62,559.00 852.96,559.00 C848.01,559.00 843.00,556.20 843.00,553.43 C843.00,551.37 845.67,551.67 848.00,554.00 C850.56,556.56 854.19,556.55 856.52,553.98 C858.86,551.39 857.77,550.24 851.45,548.63 C841.76,546.16 840.13,538.03 848.73,535.05 C852.50,533.74 853.27,533.76 856.49,535.29 C860.42,537.17 861.87,539.53 860.15,541.25 C859.32,542.08 858.39,541.78 856.62,540.11 C853.27,536.97 848.50,537.48 848.50,540.98 C848.50,542.87 849.21,543.66 851.50,544.32 C853.15,544.79 856.08,545.93 858.00,546.84 C862.45,548.95 863.25,553.04 859.90,556.60 ZM 464.69 556.83 C460.08,561.15 449.00,558.80 449.00,553.50 C449.00,551.38 451.36,551.64 453.50,554.00 C455.63,556.35 460.23,556.63 461.99,554.51 C464.01,552.07 462.42,550.20 456.92,548.57 C450.21,546.58 449.00,545.47 449.00,541.36 C449.00,534.37 459.29,531.84 464.91,537.46 C466.80,539.34 467.14,540.26 466.28,541.12 C465.43,541.97 464.47,541.72 462.44,540.13 C458.18,536.78 452.41,537.71 453.16,541.62 C453.41,542.89 455.26,544.06 458.87,545.22 C461.81,546.16 464.84,547.45 465.61,548.09 C467.75,549.87 467.28,554.39 464.69,556.83 ZM 484.80 553.67 C484.52,558.05 483.27,559.93 481.69,558.35 C481.31,557.98 481.00,552.57 481.00,546.33 C481.00,535.77 481.13,535.00 482.95,535.00 C484.56,535.00 484.94,535.82 485.20,539.75 L 485.50 544.50 L 496.89 545.10 L 497.19 540.31 C497.43,536.65 497.92,535.44 499.28,535.18 C500.92,534.87 501.04,535.78 500.78,546.67 C500.55,556.39 500.23,558.50 499.00,558.50 C497.92,558.50 497.41,557.17 497.20,553.75 L 496.89 549.00 L 485.11 549.00 ZM 699.00 553.42 C698.53,558.04 697.26,559.93 695.69,558.35 C695.31,557.98 695.00,552.53 695.00,546.26 C695.00,535.94 695.17,534.88 696.75,535.19 C698.07,535.44 698.58,536.69 698.81,540.31 L 699.11 545.10 L 710.50 544.50 L 710.80 539.75 C711.06,535.79 711.44,535.00 713.09,535.00 C714.96,535.00 715.05,535.62 714.78,546.75 C714.55,556.40 714.23,558.50 713.00,558.50 C711.93,558.50 711.36,557.06 711.00,553.50 L 710.50 548.50 L 699.50 548.50 ZM 826.41 555.92 C824.28,558.46 823.08,559.00 819.63,559.00 C811.71,559.00 809.02,554.61 809.01,541.68 C809.00,535.18 809.10,534.88 811.25,535.18 C813.38,535.48 813.50,535.95 813.51,543.84 C813.51,551.40 813.74,552.37 815.87,554.09 C818.92,556.56 820.18,556.50 822.78,553.73 C824.51,551.89 824.96,550.00 825.20,543.50 C825.45,536.84 825.79,535.47 827.25,535.19 C828.81,534.89 829.00,535.82 829.00,543.85 C829.00,552.07 828.78,553.11 826.41,555.92 ZM 520.92 553.08 C524.49,556.64 526.89,556.76 530.35,553.55 C532.38,551.67 533.00,550.14 533.00,547.00 C533.00,538.11 523.33,534.59 519.46,542.07 C517.21,546.43 517.66,549.81 520.92,553.08 ZM 758.00 548.42 C757.54,557.51 756.62,560.28 754.69,558.35 C754.31,557.98 754.00,553.27 754.00,547.89 L 754.00 538.12 L 750.33 537.81 C748.31,537.64 746.47,536.94 746.24,536.25 C745.93,535.31 748.30,535.00 755.92,535.00 C764.03,535.00 766.00,535.28 766.00,536.44 C766.00,537.38 764.70,537.99 762.25,538.19 L 758.50 538.50 ZM 675.00 548.42 C674.54,557.51 673.62,560.28 671.69,558.35 C671.31,557.98 671.00,553.24 671.00,547.83 L 671.00 538.00 L 667.56 538.00 C664.24,538.00 662.11,536.67 663.78,535.64 C664.23,535.36 668.62,535.04 673.55,534.92 C680.65,534.75 682.50,534.99 682.50,536.10 C682.50,536.94 681.09,537.70 679.00,538.00 L 675.50 538.50 ZM 885.00 548.49 C884.58,556.89 884.23,558.53 882.79,558.81 C881.27,559.09 881.04,557.93 880.79,548.82 L 880.50 538.50 L 877.21 538.00 C870.58,536.99 873.55,535.50 882.75,535.21 C890.36,534.98 892.00,535.19 892.00,536.40 C892.00,537.33 890.81,537.99 888.75,538.19 L 885.50 538.50 ZM 782.39 545.58 C783.34,548.04 788.75,547.31 790.61,544.47 C792.16,542.10 792.15,541.82 790.43,539.93 C789.19,538.55 787.62,538.00 785.55,538.20 C783.03,538.45 782.44,538.99 782.18,541.33 C782.00,542.89 782.10,544.81 782.39,545.58 ZM 554.39 545.58 C555.06,547.31 560.14,547.46 561.80,545.80 C563.44,544.16 563.31,540.50 561.56,539.05 C560.77,538.39 558.86,538.00 557.31,538.18 C555.06,538.44 554.43,539.07 554.18,541.33 C554.00,542.89 554.10,544.81 554.39,545.58 ZM 649.00 552.32 C648.71,555.86 647.99,558.51 647.25,558.75 C646.30,559.07 646.00,556.30 646.00,547.08 C646.00,537.36 646.28,535.00 647.41,535.00 C649.06,535.00 649.78,542.86 649.00,552.32 Z" fill="rgb(53,107,40)"/>
<path d="M 288.24 561.01 C288.35,560.71 288.50,560.49 288.70,560.35 C289.47,559.82 290.97,560.36 293.65,561.49 L 293.66 561.49 L 295.39 562.23 C307.64,567.43 324.88,575.52 331.53,579.08 C330.76,579.05 330.40,579.77 330.53,581.25 C330.83,584.70 329.32,586.77 325.96,587.51 C324.28,587.88 322.39,589.01 321.76,590.02 C320.98,591.26 320.10,591.60 319.05,591.06 C318.20,590.62 316.60,590.41 315.50,590.59 C312.25,591.12 306.00,589.07 306.00,587.46 C306.00,586.66 305.28,586.00 304.39,586.00 C300.58,586.00 281.59,589.53 264.87,593.18 C268.50,592.25 271.31,591.45 272.50,590.95 C273.60,590.49 278.06,589.17 282.41,588.01 C290.77,585.80 300.01,582.18 299.98,581.13 C299.97,580.78 297.53,579.45 294.55,578.16 L 289.14 575.81 L 288.55 569.66 C288.38,567.88 288.23,566.39 288.13,565.16 ZM 231.42 600.00 C233.52,599.98 241.37,598.50 249.71,596.70 C242.38,598.52 234.24,600.00 231.52,600.00 Z" fill="rgb(58,108,193)"/>
<path d="M 231.42 600.00 L 231.52 600.00 C234.24,600.00 242.38,598.52 249.71,596.70 C255.03,595.55 260.53,594.28 264.87,593.18 C281.59,589.53 300.58,586.00 304.39,586.00 C305.28,586.00 306.00,586.66 306.00,587.46 C306.00,589.07 312.25,591.12 315.50,590.59 C316.60,590.41 318.20,590.62 319.05,591.06 C320.10,591.60 320.98,591.26 321.76,590.02 C322.39,589.01 324.28,587.88 325.96,587.51 C329.32,586.77 330.83,584.70 330.53,581.25 C330.40,579.77 330.76,579.05 331.53,579.08 C332.95,579.84 333.88,580.39 334.19,580.67 C336.65,582.90 336.47,586.24 333.75,588.65 C332.35,589.89 323.55,592.83 310.50,596.40 C303.76,598.25 292.55,601.36 280.77,604.65 L 280.71 604.66 C266.83,608.54 252.17,612.65 243.12,615.21 C238.69,616.44 235.09,617.41 232.11,618.18 C236.01,617.07 238.00,616.13 238.00,615.39 C238.00,614.58 236.97,614.00 235.56,614.00 C234.21,614.00 231.85,612.91 230.31,611.57 L 227.50 609.15 L 229.36 605.66 C231.51,601.63 231.11,600.48 227.27,599.68 C225.10,599.22 224.10,598.88 212.49,590.95 C223.50,598.35 226.36,599.69 229.31,599.94 C229.97,600.00 230.63,600.00 231.39,600.00 ZM 223.94 620.10 C219.94,620.89 217.88,620.94 215.51,620.76 C218.12,620.90 220.86,620.66 223.94,620.10 ZM 137.37 538.30 C137.34,538.35 137.42,538.48 137.59,538.67 C137.40,538.47 137.32,538.35 137.36,538.31 Z" fill="rgb(66,120,207)"/>
<path d="M 138.00 507.47 C138.00,506.01 134.55,506.13 131.49,507.69 C130.40,508.25 120.55,510.43 109.62,512.53 C88.77,516.54 85.07,518.05 83.42,523.25 C83.04,524.43 82.10,526.05 81.32,526.83 C79.08,529.06 80.01,535.29 82.76,536.49 C84.01,537.04 84.84,537.98 84.60,538.59 C84.37,539.20 85.15,540.85 86.34,542.27 C87.39,543.51 103.84,557.30 123.79,573.81 C103.64,557.17 86.65,543.00 84.34,540.77 C79.66,536.26 77.73,530.75 78.62,524.44 C80.00,514.53 81.55,513.50 101.00,509.56 C107.88,508.17 118.79,505.90 125.25,504.52 C125.76,504.41 126.24,504.30 126.71,504.20 C135.69,502.28 138.62,501.65 139.22,502.56 C139.51,503.00 139.27,503.80 138.90,504.99 C138.86,505.12 138.82,505.25 138.77,505.39 L 137.73 508.77 L 117.52 512.75 C131.58,509.93 138.00,508.27 138.00,507.47 ZM 86.54 523.07 C86.87,523.86 92.63,528.85 99.33,534.17 C92.63,528.85 86.90,523.92 86.59,523.21 C85.07,519.70 87.78,518.61 111.11,514.02 C89.18,518.39 85.19,519.92 86.54,523.07 ZM 117.52 512.75 C116.12,513.03 114.65,513.32 113.09,513.63 C112.44,513.76 111.80,513.88 111.18,514.00 L 117.52 512.75 Z" fill="rgb(68,87,123)"/>
<path d="M 223.94 620.10 C220.86,620.66 218.12,620.90 215.51,620.76 C215.32,620.75 215.13,620.73 214.94,620.71 C207.52,620.06 201.23,616.71 189.35,607.08 C183.93,602.69 164.20,586.67 145.50,571.47 C126.80,556.28 106.02,539.49 99.33,534.17 C92.63,528.85 86.87,523.86 86.54,523.07 C85.19,519.92 89.18,518.39 111.11,514.02 L 117.52 512.75 L 117.52 512.75 L 137.59 508.80 C137.71,508.39 137.82,507.99 137.93,507.62 C137.95,507.54 137.97,507.46 138.00,507.38 C138.85,504.36 139.08,502.83 138.81,502.27 C138.39,502.12 137.70,502.11 136.63,502.25 C134.26,502.66 129.90,503.52 125.25,504.52 C125.76,504.41 126.24,504.30 126.71,504.20 C131.63,503.15 134.73,502.49 136.63,502.25 C137.55,502.09 138.17,502.00 138.39,502.00 C138.58,502.00 138.72,502.08 138.81,502.27 C139.00,502.34 139.14,502.43 139.22,502.56 C139.51,503.00 139.27,503.80 138.90,504.99 C138.86,505.12 138.82,505.25 138.77,505.39 L 137.73 508.77 L 137.59 508.80 C137.29,509.81 136.93,510.96 136.53,512.25 C130.73,530.59 130.36,532.64 132.45,534.95 C133.45,536.05 135.22,537.24 136.38,537.60 C136.87,537.75 138.67,538.74 141.77,540.54 C138.90,538.89 137.49,538.18 137.38,538.29 C137.37,538.29 137.37,538.30 137.37,538.30 L 137.36 538.31 C137.32,538.35 137.40,538.47 137.59,538.67 C138.50,539.63 141.95,542.27 146.20,545.20 C151.31,548.74 169.11,561.05 185.75,572.57 C198.00,581.04 206.46,586.90 212.49,590.95 C224.10,598.88 225.10,599.22 227.27,599.68 C231.11,600.48 231.51,601.63 229.36,605.66 L 227.50 609.15 L 230.31 611.57 C231.85,612.91 234.21,614.00 235.56,614.00 C236.97,614.00 238.00,614.58 238.00,615.39 C238.00,616.13 236.01,617.07 232.11,618.18 C228.65,619.07 226.03,619.69 223.94,620.10 Z" fill="rgb(104,155,229)"/>
<path d="M 136.63 502.25 C136.46,502.27 136.29,502.29 136.11,502.32 C135.15,502.46 133.93,502.69 132.39,503.00 C136.19,502.08 139.16,501.14 139.63,500.66 C140.24,500.02 143.53,489.15 146.92,476.50 C150.32,463.85 153.77,451.63 154.59,449.35 C156.30,444.60 158.09,443.63 168.24,441.93 L 174.98 440.80 L 176.04 436.65 C177.46,431.16 179.16,426.32 181.17,422.12 C178.90,427.00 176.92,433.12 174.90,441.23 C172.29,451.64 171.94,454.23 172.98,455.48 C174.68,457.52 177.71,457.41 178.86,455.25 C179.37,454.29 180.53,448.85 181.43,443.17 C181.75,441.12 182.09,439.24 182.44,437.50 C182.37,438.29 182.44,438.84 182.66,439.06 C183.20,439.60 185.98,439.57 189.53,438.99 L 189.75 438.95 C194.73,438.14 196.64,437.82 197.55,438.64 C198.13,439.16 198.30,440.14 198.59,441.75 C198.96,443.81 199.69,446.32 200.20,447.31 C200.83,448.53 200.74,449.61 199.93,450.59 C198.94,451.78 199.01,451.93 200.36,451.42 L 200.51 451.36 C201.19,451.10 201.60,450.94 201.78,451.08 C202.07,451.29 201.79,452.24 201.07,454.65 L 200.96 455.01 C200.39,456.93 199.90,463.14 199.88,468.82 C199.84,477.64 199.46,479.96 197.29,484.82 C195.33,489.20 194.77,492.03 194.85,497.20 C194.91,500.89 194.52,504.18 193.98,504.51 C193.44,504.85 193.00,506.16 193.00,507.44 C193.00,508.71 192.32,511.37 191.50,513.35 C190.68,515.32 190.00,518.25 190.00,519.85 C190.00,521.45 189.32,524.37 188.50,526.35 C187.68,528.32 187.00,531.48 187.00,533.36 C187.00,535.36 186.42,537.01 185.61,537.32 C184.00,537.94 180.81,543.88 181.49,544.99 C182.39,546.44 177.98,553.88 174.94,556.04 C173.24,557.26 172.22,558.60 172.67,559.03 C172.85,559.20 174.04,559.98 175.92,561.18 C158.32,550.36 147.32,543.72 141.77,540.54 C138.67,538.74 136.87,537.75 136.38,537.60 C135.22,537.24 133.45,536.05 132.45,534.95 C130.36,532.64 130.73,530.59 136.53,512.25 C136.93,510.96 137.29,509.81 137.59,508.80 L 137.73 508.77 L 138.77 505.39 C138.82,505.25 138.86,505.12 138.90,504.99 C139.27,503.80 139.51,503.00 139.22,502.56 C139.14,502.43 139.00,502.34 138.81,502.27 C138.72,502.08 138.58,502.00 138.39,502.00 C138.17,502.00 137.55,502.09 136.63,502.25 ZM 185.72 414.37 C190.51,407.78 196.48,403.67 203.69,401.99 C198.03,403.49 192.48,406.75 188.12,411.48 C187.28,412.40 186.48,413.36 185.72,414.37 ZM 213.72 401.26 C218.15,401.70 221.66,403.28 224.09,405.88 C222.83,404.67 221.25,403.67 219.30,402.81 C217.54,402.03 215.67,401.52 213.72,401.26 ZM 225.00 589.61 C225.00,589.63 225.02,589.66 225.04,589.69 C225.01,589.94 225.00,590.09 225.00,590.14 C225.00,590.40 224.93,590.56 224.64,590.55 C224.94,589.15 226.36,579.95 227.95,569.00 C228.21,567.26 228.46,565.52 228.72,563.78 C226.31,580.35 225.00,589.43 225.00,589.61 ZM 214.43 584.86 C217.70,586.87 220.64,588.62 222.51,589.67 C219.90,588.29 214.61,585.05 204.00,578.49 C202.47,577.55 200.98,576.62 199.51,575.71 C205.37,579.30 211.05,582.78 214.43,584.86 ZM 122.22 505.16 C115.74,506.53 106.89,508.37 101.00,509.56 C99.32,509.90 97.77,510.22 96.35,510.52 C98.45,510.06 100.82,509.57 103.50,509.01 C109.27,507.83 116.51,506.34 122.22,505.16 ZM 189.50 419.00 C192.35,414.65 196.48,411.28 200.90,409.24 C196.57,411.28 192.48,414.64 189.50,419.00 ZM 184.09 430.75 C185.11,427.34 186.33,424.46 187.88,421.68 C186.49,424.30 185.11,427.67 184.09,430.75 ZM 241.97 473.73 C242.55,469.84 243.04,466.56 243.43,464.00 C244.81,454.92 246.46,443.98 247.10,439.68 L 248.27 431.86 L 247.11 439.68 C246.47,443.98 244.41,457.62 242.53,470.00 C242.35,471.22 242.16,472.47 241.97,473.73 ZM 81.48 516.06 C79.75,517.94 79.17,520.48 78.62,524.44 C79.17,520.47 79.69,517.94 81.48,516.06 Z" fill="rgb(104,212,97)"/>
<path d="M 214.43 584.86 C211.05,582.78 205.37,579.30 199.51,575.71 L 199.51 575.71 C190.60,570.21 182.76,565.38 175.92,561.18 C174.04,559.98 172.85,559.20 172.67,559.03 C172.22,558.60 173.24,557.26 174.94,556.04 C177.98,553.88 182.39,546.44 181.49,544.99 C180.81,543.88 184.00,537.94 185.61,537.32 C186.42,537.01 187.00,535.36 187.00,533.36 C187.00,531.48 187.68,528.32 188.50,526.35 C189.32,524.37 190.00,521.45 190.00,519.85 C190.00,518.25 190.68,515.32 191.50,513.35 C192.32,511.37 193.00,508.71 193.00,507.44 C193.00,506.16 193.44,504.85 193.98,504.51 C194.52,504.18 194.91,500.89 194.85,497.20 C194.77,492.03 195.33,489.20 197.29,484.82 C199.46,479.96 199.84,477.64 199.88,468.82 C199.90,463.14 200.39,456.93 200.96,455.01 L 201.07 454.65 C201.79,452.24 202.07,451.29 201.78,451.08 C201.60,450.94 201.19,451.10 200.51,451.36 L 200.36 451.42 C199.01,451.93 198.94,451.78 199.93,450.59 C200.74,449.61 200.83,448.53 200.20,447.31 C199.69,446.32 198.96,443.81 198.59,441.75 C198.30,440.14 198.13,439.16 197.55,438.64 C196.90,438.06 195.74,438.05 193.33,438.39 C196.27,437.94 199.76,437.43 203.35,436.91 C214.88,435.24 218.61,434.96 220.29,431.85 C219.92,433.28 219.50,434.81 219.04,436.43 C214.85,451.30 214.80,451.66 216.57,453.43 C220.36,457.22 222.61,454.71 225.00,444.01 C226.38,437.83 227.56,435.10 230.14,432.15 C231.35,430.77 233.14,428.68 234.80,426.68 C232.74,429.45 231.42,431.82 231.77,432.17 C232.17,432.57 235.77,432.39 239.77,431.77 L 247.04 430.64 L 251.10 434.57 C251.33,434.79 251.56,435.02 251.79,435.26 C251.77,435.23 251.74,435.21 251.72,435.18 L 248.27 431.86 L 247.10 439.68 C246.46,443.98 244.81,454.92 243.43,464.00 C243.04,466.56 242.55,469.83 241.97,473.73 L 241.97 473.73 C240.23,485.22 238.34,497.80 237.58,503.00 C233.85,528.50 230.85,549.09 228.72,563.78 L 228.72 563.79 C228.46,565.52 228.21,567.26 227.95,569.00 C226.36,579.95 224.94,589.15 224.64,590.55 C224.31,590.54 223.68,590.29 222.51,589.67 C220.64,588.62 217.70,586.87 214.43,584.86 ZM 237.60 423.31 C240.18,420.29 243.29,418.18 246.41,417.10 C243.44,418.20 240.42,420.30 237.60,423.31 ZM 260.90 423.28 C261.09,424.85 261.00,427.20 260.79,431.28 C260.63,434.20 260.35,437.09 260.02,439.22 C260.35,437.04 260.63,434.06 260.77,431.05 C260.95,427.16 261.04,424.83 260.90,423.28 ZM 221.99 424.45 C222.06,423.99 222.13,423.51 222.21,423.00 C222.54,420.88 222.70,419.10 222.68,417.56 C222.73,419.44 222.50,421.70 221.99,424.45 ZM 184.09 430.75 C185.11,427.67 186.49,424.30 187.88,421.68 C187.91,421.63 187.93,421.58 187.96,421.53 C186.53,424.21 185.08,427.77 184.01,431.00 C184.04,430.92 184.06,430.83 184.09,430.75 ZM 191.31 438.70 C190.83,438.78 190.31,438.86 189.75,438.95 L 189.53 438.99 C189.09,439.06 188.67,439.12 188.26,439.18 C189.13,439.04 190.16,438.88 191.31,438.70 ZM 255.80 417.20 C256.61,417.57 257.37,418.04 258.07,418.63 C257.35,418.05 256.59,417.57 255.80,417.20 Z" fill="rgb(127,210,79)"/>
<path d="M 253.06 436.57 C257.07,440.44 259.13,441.30 260.14,438.43 C260.10,438.70 260.06,438.97 260.02,439.22 C259.78,440.86 259.51,442.05 259.26,442.49 C258.31,444.19 258.10,444.11 256.70,441.42 C256.05,440.18 254.58,438.24 253.06,436.57 ZM 621.46 544.21 C623.14,549.79 625.10,549.45 627.06,543.22 C626.73,544.51 626.42,545.92 626.16,547.42 C625.07,553.63 623.56,552.64 621.50,544.39 ZM 629.00 550.36 C627.70,554.45 626.44,557.92 625.90,558.48 C625.37,559.02 624.80,559.17 624.21,558.94 C625.64,558.81 627.14,555.97 629.00,550.36 ZM 613.87 538.62 C614.57,536.67 615.23,535.22 615.62,534.90 C615.93,534.64 616.25,534.50 616.57,534.49 C615.69,534.74 614.80,536.12 613.87,538.62 ZM 260.90 423.28 C260.96,423.97 260.98,424.83 260.96,425.91 C260.89,422.96 260.61,421.57 259.78,420.40 C260.40,421.19 260.75,421.97 260.90,423.28 ZM 629.03 537.64 C630.27,535.17 631.62,534.28 632.74,535.40 C632.78,535.45 632.80,535.58 632.80,535.77 C632.65,535.06 632.12,535.02 631.25,535.19 C630.52,535.33 629.76,536.20 629.03,537.64 ZM 618.97 536.60 C619.66,537.88 620.31,539.70 620.89,542.04 C620.23,539.67 619.59,537.86 618.97,536.60 ZM 237.60 423.31 C240.42,420.30 243.44,418.20 246.41,417.10 C246.51,417.07 246.61,417.04 246.70,417.01 C243.63,418.09 240.48,420.23 237.57,423.34 ZM 249.23 432.75 L 247.04 430.64 L 247.10 430.63 ZM 258.58 419.07 C258.28,418.80 257.98,418.55 257.67,418.31 C257.80,418.41 257.94,418.52 258.07,418.63 C258.25,418.77 258.41,418.92 258.58,419.07 Z" fill="rgb(205,214,217)"/>
<path d="M 0.00 512.00 L 0.00 0.00 L 512.00 0.00 L 1024.00 0.00 L 1024.00 512.00 L 1024.00 1024.00 L 512.00 1024.00 L 0.00 1024.00 L 0.00 512.00 ZM 258.42 630.06 C277.16,624.59 301.73,617.46 313.00,614.21 C324.28,610.96 334.92,607.57 336.65,606.68 C338.60,605.67 340.64,603.31 342.02,600.45 C343.90,596.58 344.18,594.68 343.78,588.47 C343.39,582.43 342.82,580.45 340.61,577.55 C339.12,575.61 336.69,573.73 335.21,573.37 C333.72,573.02 331.83,572.17 331.00,571.49 C330.17,570.81 320.50,566.10 309.50,561.03 C298.50,555.95 288.91,551.23 288.18,550.54 C286.87,549.30 284.71,520.37 282.05,468.50 C281.46,456.95 280.73,446.04 280.44,444.25 C279.78,440.19 277.81,440.05 270.87,443.57 C268.08,444.98 265.67,445.99 265.51,445.82 C265.35,445.64 265.59,443.25 266.05,440.50 C267.46,432.04 267.15,422.12 265.37,418.37 C263.28,413.97 256.65,410.00 251.41,410.01 C246.12,410.02 238.34,413.88 233.55,418.88 C231.37,421.15 229.24,423.00 228.80,423.00 C228.36,423.00 228.00,420.41 228.00,417.25 C227.99,406.18 220.80,400.26 208.56,401.24 C192.54,402.53 181.82,414.20 176.04,436.65 L 174.98 440.80 L 168.24 441.93 C158.09,443.63 156.30,444.60 154.59,449.35 C153.77,451.63 150.32,463.85 146.92,476.50 C143.53,489.15 140.24,500.02 139.63,500.66 C139.01,501.30 134.00,502.74 128.50,503.87 C123.00,505.00 111.75,507.31 103.50,509.01 C81.23,513.60 80.03,514.35 78.62,524.44 C77.73,530.75 79.66,536.26 84.34,540.77 C90.24,546.46 191.49,629.73 197.35,633.70 C203.58,637.93 209.88,639.84 217.92,639.93 C223.21,639.99 230.27,638.27 258.42,630.06 ZM 464.69 556.83 C467.28,554.39 467.75,549.87 465.61,548.09 C464.84,547.45 461.81,546.16 458.87,545.22 C455.26,544.06 453.41,542.89 453.16,541.62 C452.41,537.71 458.18,536.78 462.44,540.13 C464.47,541.72 465.43,541.97 466.28,541.12 C467.14,540.26 466.80,539.34 464.91,537.46 C459.29,531.84 449.00,534.37 449.00,541.36 C449.00,545.47 450.21,546.58 456.92,548.57 C462.42,550.20 464.01,552.07 461.99,554.51 C460.23,556.63 455.63,556.35 453.50,554.00 C451.36,551.64 449.00,551.38 449.00,553.50 C449.00,558.80 460.08,561.15 464.69,556.83 ZM 484.80 553.67 L 485.11 549.00 L 491.00 549.00 L 496.89 549.00 L 497.20 553.75 C497.41,557.17 497.92,558.50 499.00,558.50 C500.23,558.50 500.55,556.39 500.78,546.67 C501.04,535.78 500.92,534.87 499.28,535.18 C497.92,535.44 497.43,536.65 497.19,540.31 L 496.89 545.10 L 491.19 544.80 L 485.50 544.50 L 485.20 539.75 C484.94,535.82 484.56,535.00 482.95,535.00 C481.13,535.00 481.00,535.77 481.00,546.33 C481.00,552.57 481.31,557.98 481.69,558.35 C483.27,559.93 484.52,558.05 484.80,553.67 ZM 533.60 555.60 C536.49,552.71 537.00,551.50 537.00,547.55 C537.00,541.46 534.93,537.67 530.45,535.54 C520.59,530.86 511.55,539.87 514.89,551.04 C516.47,556.30 520.15,559.00 525.73,559.00 C529.48,559.00 530.75,558.45 533.60,555.60 ZM 553.81 554.70 C554.11,551.15 554.24,551.04 559.02,550.40 C564.92,549.62 567.40,547.23 567.40,542.32 C567.40,537.00 564.40,535.00 556.39,535.00 L 550.00 535.00 L 550.00 546.33 C550.00,552.57 550.31,557.98 550.69,558.35 C552.14,559.81 553.51,558.20 553.81,554.70 ZM 611.53 557.94 C611.89,557.36 612.93,554.14 613.84,550.78 C614.75,547.41 615.99,544.50 616.59,544.30 C617.19,544.10 618.58,546.96 619.69,550.67 C621.70,557.42 624.05,560.37 625.90,558.48 C627.31,557.03 633.49,536.16 632.74,535.40 C631.11,533.78 629.00,536.39 627.44,541.94 C625.16,550.07 622.85,550.23 620.97,542.38 C619.48,536.16 617.48,533.36 615.62,534.90 C614.98,535.43 613.58,539.05 612.51,542.95 C611.45,546.84 610.11,549.87 609.54,549.68 C608.97,549.49 607.75,546.59 606.84,543.22 C605.93,539.86 604.89,536.64 604.53,536.06 C603.76,534.81 601.00,534.63 601.00,535.83 C601.00,536.86 607.06,557.23 607.67,558.25 C608.33,559.36 610.78,559.16 611.53,557.94 ZM 649.00 552.32 C649.78,542.86 649.06,535.00 647.41,535.00 C646.28,535.00 646.00,537.36 646.00,547.08 C646.00,556.30 646.30,559.07 647.25,558.75 C647.99,558.51 648.71,555.86 649.00,552.32 ZM 675.00 548.42 L 675.50 538.50 L 679.00 538.00 C681.09,537.70 682.50,536.94 682.50,536.10 C682.50,534.99 680.65,534.75 673.55,534.92 C668.62,535.04 664.23,535.36 663.78,535.64 C662.11,536.67 664.24,538.00 667.56,538.00 L 671.00 538.00 L 671.00 547.83 C671.00,553.24 671.31,557.98 671.69,558.35 C673.62,560.28 674.54,557.51 675.00,548.42 ZM 699.00 553.42 L 699.50 548.50 L 705.00 548.50 L 710.50 548.50 L 711.00 553.50 C711.36,557.06 711.93,558.50 713.00,558.50 C714.23,558.50 714.55,556.40 714.78,546.75 C715.05,535.62 714.96,535.00 713.09,535.00 C711.44,535.00 711.06,535.79 710.80,539.75 L 710.50 544.50 L 704.81 544.80 L 699.11 545.10 L 698.81 540.31 C698.58,536.69 698.07,535.44 696.75,535.19 C695.17,534.88 695.00,535.94 695.00,546.26 C695.00,552.53 695.31,557.98 695.69,558.35 C697.26,559.93 698.53,558.04 699.00,553.42 ZM 758.00 548.42 L 758.50 538.50 L 762.25 538.19 C764.70,537.99 766.00,537.38 766.00,536.44 C766.00,535.28 764.03,535.00 755.92,535.00 C748.30,535.00 745.93,535.31 746.24,536.25 C746.47,536.94 748.31,537.64 750.33,537.81 L 754.00 538.12 L 754.00 547.89 C754.00,553.27 754.31,557.98 754.69,558.35 C756.62,560.28 757.54,557.51 758.00,548.42 ZM 782.00 554.43 C782.72,548.83 785.10,548.83 788.96,554.44 C790.88,557.23 792.86,559.00 794.05,559.00 C796.55,559.00 796.51,558.73 793.44,554.09 L 790.88 550.21 L 793.44 547.65 C796.91,544.18 796.86,539.82 793.31,537.03 C791.12,535.30 789.50,534.97 784.56,535.21 L 778.50 535.50 L 778.21 545.93 C778.06,551.67 778.17,557.00 778.46,557.77 C779.45,560.33 781.49,558.40 782.00,554.43 ZM 826.41 555.92 C828.78,553.11 829.00,552.07 829.00,543.85 C829.00,535.82 828.81,534.89 827.25,535.19 C825.79,535.47 825.45,536.84 825.20,543.50 C824.96,550.00 824.51,551.89 822.78,553.73 C820.18,556.50 818.92,556.56 815.87,554.09 C813.74,552.37 813.51,551.40 813.51,543.84 C813.50,535.95 813.38,535.48 811.25,535.18 C809.10,534.88 809.00,535.18 809.01,541.68 C809.02,554.61 811.71,559.00 819.63,559.00 C823.08,559.00 824.28,558.46 826.41,555.92 ZM 859.90 556.60 C863.25,553.04 862.45,548.95 858.00,546.84 C856.08,545.93 853.15,544.79 851.50,544.32 C849.21,543.66 848.50,542.87 848.50,540.98 C848.50,537.48 853.27,536.97 856.62,540.11 C858.39,541.78 859.32,542.08 860.15,541.25 C861.87,539.53 860.42,537.17 856.49,535.29 C853.27,533.76 852.50,533.74 848.73,535.05 C840.13,538.03 841.76,546.16 851.45,548.63 C857.77,550.24 858.86,551.39 856.52,553.98 C854.19,556.55 850.56,556.56 848.00,554.00 C845.67,551.67 843.00,551.37 843.00,553.43 C843.00,556.20 848.01,559.00 852.96,559.00 C856.62,559.00 858.15,558.47 859.90,556.60 ZM 885.00 548.49 L 885.50 538.50 L 888.75 538.19 C890.81,537.99 892.00,537.33 892.00,536.40 C892.00,535.19 890.36,534.98 882.75,535.21 C873.55,535.50 870.58,536.99 877.21,538.00 L 880.50 538.50 L 880.79 548.82 C881.04,557.93 881.27,559.09 882.79,558.81 C884.23,558.53 884.58,556.89 885.00,548.49 ZM 421.62 516.18 C427.15,513.35 430.13,509.75 431.03,504.84 C432.93,494.47 427.08,488.82 411.95,486.39 C401.17,484.67 398.00,483.09 398.00,479.43 C398.00,477.45 398.82,476.56 401.71,475.35 C407.14,473.08 412.82,474.11 416.28,477.99 C418.82,480.83 419.53,481.08 424.28,480.80 L 429.50 480.50 L 429.33 477.02 C429.11,472.67 423.11,466.68 417.38,465.09 C410.00,463.04 400.92,463.71 394.93,466.75 C390.31,469.09 389.21,470.21 387.55,474.28 C385.82,478.52 385.75,479.60 386.86,483.77 C389.07,492.01 392.34,494.20 405.74,496.35 C419.16,498.51 421.62,500.58 416.83,505.69 C414.99,507.64 413.65,508.00 408.19,508.00 C402.11,508.00 401.55,507.80 398.44,504.50 C395.61,501.51 394.48,501.00 390.63,501.00 C388.15,501.00 385.85,501.43 385.53,501.96 C384.78,503.16 387.52,509.81 389.79,512.32 C391.83,514.57 396.37,517.03 400.50,518.13 C405.54,519.46 417.35,518.37 421.62,516.18 ZM 674.17 515.85 C680.03,512.62 683.00,507.93 683.00,501.93 C683.00,493.00 676.54,488.29 661.11,485.97 C655.56,485.14 652.08,484.08 650.86,482.86 C648.55,480.55 648.54,479.79 650.79,477.01 C654.53,472.39 666.14,473.66 669.01,479.01 C669.87,480.62 671.10,481.00 675.48,481.00 C678.45,481.00 681.09,480.66 681.35,480.25 C682.35,478.63 678.93,471.36 676.01,468.90 C672.05,465.55 666.76,464.00 659.38,464.01 C648.18,464.02 641.98,467.28 638.49,475.01 C636.85,478.66 636.78,479.71 637.87,483.81 C640.05,491.97 643.57,494.22 657.72,496.51 C670.10,498.51 673.52,501.36 668.75,505.69 C663.89,510.10 654.28,509.24 649.88,504.00 C647.46,501.13 646.85,500.91 641.88,501.19 C636.79,501.48 636.52,501.63 636.82,504.00 C637.62,510.15 643.79,516.09 651.50,518.13 C657.21,519.64 669.55,518.40 674.17,515.85 ZM 781.66 516.15 C790.98,511.35 795.96,502.60 795.96,491.00 C795.96,474.22 785.61,464.00 768.62,464.00 C763.57,464.00 761.08,464.62 756.10,467.11 C746.78,471.76 742.00,480.35 742.00,492.43 C742.00,503.59 749.58,514.18 759.97,517.53 C765.92,519.45 776.58,518.77 781.66,516.15 ZM 944.16 515.83 C949.95,512.59 952.24,509.10 952.77,502.70 C953.18,497.78 952.95,497.01 950.06,493.73 C946.42,489.57 941.37,487.46 931.50,485.96 C923.14,484.68 920.00,482.90 920.00,479.43 C920.00,477.49 920.81,476.56 923.47,475.45 C925.38,474.65 927.84,474.00 928.95,474.00 C932.49,474.00 938.72,477.05 939.71,479.27 C940.53,481.12 941.36,481.38 945.58,481.13 C948.29,480.98 950.83,480.53 951.23,480.14 C952.54,478.88 950.08,472.45 947.24,469.73 C940.79,463.55 925.92,461.98 916.93,466.54 C910.78,469.65 908.01,473.86 908.00,480.10 C908.00,485.45 910.87,490.44 915.50,493.13 C917.15,494.09 922.61,495.54 927.63,496.34 C941.16,498.51 943.63,500.57 938.83,505.69 C936.99,507.64 935.65,508.00 930.28,508.00 C924.85,508.00 923.55,507.64 921.45,505.55 C920.10,504.20 919.00,502.62 919.00,502.05 C919.00,501.43 916.51,501.00 913.00,501.00 C907.60,501.00 907.00,501.21 907.00,503.07 C907.00,509.05 914.03,515.89 922.50,518.13 C928.04,519.59 939.62,518.36 944.16,515.83 ZM 453.00 507.00 L 453.50 496.50 L 464.63 496.22 C477.69,495.89 476.96,495.12 476.99,509.25 L 477.00 518.00 L 481.80 518.00 C484.44,518.00 487.14,517.46 487.80,516.80 C488.67,515.93 489.00,508.64 489.00,490.30 L 489.00 465.00 L 483.04 465.00 L 477.07 465.00 L 476.79 474.75 L 476.50 484.50 L 464.75 484.78 L 453.00 485.06 L 453.00 475.03 L 453.00 465.00 L 447.00 465.00 L 441.00 465.00 L 441.00 490.83 C441.00,505.04 441.32,516.99 441.71,517.38 C442.10,517.77 444.69,517.96 447.46,517.79 L 452.50 517.50 L 453.00 507.00 ZM 509.80 516.80 C511.07,515.53 511.57,471.74 510.37,467.25 C509.83,465.24 509.14,465.00 503.88,465.00 L 498.00 465.00 L 498.00 490.83 C498.00,505.04 498.30,516.97 498.67,517.33 C499.81,518.48 508.54,518.06 509.80,516.80 ZM 532.00 508.00 L 532.50 498.50 L 543.00 498.00 L 553.50 497.50 L 553.50 492.50 L 553.50 487.50 L 543.00 487.00 L 532.50 486.50 L 532.50 481.00 L 532.50 475.50 L 546.00 475.00 L 559.50 474.50 L 559.80 469.75 L 560.11 465.00 L 540.05 465.00 L 520.00 465.00 L 520.00 489.92 C520.00,503.62 520.28,515.57 520.63,516.47 C521.11,517.74 522.38,518.03 526.38,517.80 L 531.50 517.50 L 532.00 508.00 ZM 572.78 514.50 C576.42,506.04 575.65,506.53 585.89,506.21 C591.69,506.03 595.71,506.34 596.55,507.04 C597.29,507.65 598.65,510.43 599.57,513.20 L 601.25 518.26 L 607.20 517.72 C610.48,517.42 613.34,516.99 613.56,516.77 C613.78,516.55 609.39,504.80 603.81,490.65 L 593.65 464.92 L 586.58 465.21 L 579.50 465.50 L 569.25 491.00 C563.61,505.02 559.00,516.58 559.00,516.68 C559.00,517.28 563.16,517.79 566.99,517.66 C570.96,517.52 571.63,517.15 572.78,514.50 ZM 719.77 496.79 L 720.04 476.08 L 728.77 475.79 L 737.50 475.50 L 737.80 470.23 L 738.11 464.96 L 713.80 465.23 L 689.50 465.50 L 689.50 470.50 L 689.50 475.50 L 698.50 476.00 L 707.50 476.50 L 707.76 496.00 C707.90,506.73 708.23,516.09 708.50,516.80 C708.83,517.70 710.60,518.01 714.24,517.80 L 719.50 517.50 L 719.77 496.79 ZM 817.00 509.00 L 817.50 500.50 L 821.50 500.20 L 825.51 499.91 L 830.86 508.95 L 836.22 518.00 L 842.05 518.00 C845.26,518.00 848.18,517.52 848.54,516.93 C848.91,516.34 846.68,512.07 843.60,507.44 C840.52,502.81 838.00,498.83 838.00,498.61 C838.00,498.38 839.57,497.27 841.49,496.14 C846.61,493.12 848.99,488.59 849.00,481.90 C849.00,474.87 846.27,470.40 840.03,467.25 C835.99,465.21 834.16,465.00 820.29,465.00 L 805.00 465.00 L 805.00 490.83 C805.00,505.04 805.32,516.99 805.71,517.38 C806.10,517.77 808.69,517.96 811.46,517.79 L 816.50 517.50 L 817.00 509.00 ZM 898.50 512.50 L 898.50 507.50 L 884.50 507.00 L 870.50 506.50 L 870.50 501.50 L 870.50 496.50 L 882.00 496.00 L 893.50 495.50 L 893.50 491.00 L 893.50 486.50 L 882.00 486.00 L 870.50 485.50 L 870.50 480.50 L 870.50 475.50 L 884.50 475.00 L 898.50 474.50 L 898.80 469.75 L 899.11 465.00 L 878.55 465.00 L 858.00 465.00 L 858.00 490.83 C858.00,505.04 858.31,516.98 858.69,517.35 C859.07,517.73 868.18,517.92 878.94,517.77 L 898.50 517.50 L 898.50 512.50 ZM 252.20 435.73 L 247.10 430.63 L 239.80 431.76 C235.79,432.38 232.17,432.57 231.77,432.17 C231.37,431.77 233.10,428.83 235.61,425.63 C243.04,416.16 252.61,413.47 258.64,419.13 C260.69,421.06 261.00,422.27 260.99,428.42 C260.96,441.74 259.46,442.99 252.20,435.73 ZM 182.52 439.04 C181.49,437.37 185.56,425.17 188.94,419.84 C195.80,409.01 209.40,403.90 217.77,409.00 C222.39,411.82 223.43,415.09 222.21,423.00 C220.34,435.10 221.44,434.29 203.35,436.91 C194.63,438.17 186.54,439.41 185.36,439.68 C184.18,439.94 182.91,439.66 182.52,439.04 ZM 520.92 553.08 C517.66,549.81 517.21,546.43 519.46,542.07 C523.33,534.59 533.00,538.11 533.00,547.00 C533.00,550.14 532.38,551.67 530.35,553.55 C526.89,556.76 524.49,556.64 520.92,553.08 ZM 554.39 545.58 C554.10,544.81 554.00,542.89 554.18,541.33 C554.43,539.07 555.06,538.44 557.31,538.18 C558.86,538.00 560.77,538.39 561.56,539.05 C563.31,540.50 563.44,544.16 561.80,545.80 C560.14,547.46 555.06,547.31 554.39,545.58 ZM 782.39 545.58 C782.10,544.81 782.00,542.89 782.18,541.33 C782.44,538.99 783.03,538.45 785.55,538.20 C787.62,538.00 789.19,538.55 790.43,539.93 C792.15,541.82 792.16,542.10 790.61,544.47 C788.75,547.31 783.34,548.04 782.39,545.58 ZM 761.85 505.98 C754.60,502.15 751.99,491.41 756.25,482.96 C760.14,475.25 768.64,472.87 776.50,477.28 C781.99,480.37 784.21,484.96 783.74,492.26 C782.95,504.53 772.05,511.37 761.85,505.98 ZM 580.89 495.93 C579.79,495.25 584.99,480.89 586.42,480.65 C587.67,480.45 593.23,494.18 592.26,495.09 C591.27,496.02 582.14,496.70 580.89,495.93 ZM 817.84 482.37 C817.44,474.59 817.59,474.47 826.25,475.45 C834.54,476.39 836.00,477.30 836.00,481.54 C836.00,487.15 833.30,489.00 825.09,489.00 L 818.17 489.00 L 817.84 482.37 Z" fill="rgb(254,254,254)"/>
</g>
</svg>